<?xml version="1.0" standalone="no"?>
<!DOCTYPE svg PUBLIC "-//W3C//DTD SVG 20010904//EN"
 "http://www.w3.org/TR/2001/REC-SVG-20010904/DTD/svg10.dtd">
<svg version="1.0" xmlns="http://www.w3.org/2000/svg"
 width="466.000000pt" height="191.000000pt" viewBox="0 0 466.000000 191.000000"
 preserveAspectRatio="xMidYMid meet">

<g transform="translate(0.000000,191.000000) scale(0.100000,-0.100000)"
fill="#000000" stroke="none">
<path d="M0 955 l0 -955 655 0 655 0 0 955 0 955 -655 0 -655 0 0 -955z m838
680 c53 -22 92 -67 92 -107 0 -43 -48 -88 -94 -88 -44 0 -49 9 -31 53 22 52 7
83 -52 109 -39 17 -59 20 -122 15 -98 -8 -146 -24 -188 -63 -28 -27 -33 -38
-33 -77 0 -63 37 -97 170 -160 369 -173 440 -216 510 -315 95 -132 114 -346
43 -487 -82 -165 -264 -272 -478 -282 -235 -11 -429 83 -502 245 -22 47 -27
72 -27 142 -1 73 3 92 26 135 33 65 104 129 176 163 51 24 69 27 167 27 120 0
164 -11 235 -56 79 -50 113 -130 96 -224 -15 -78 -123 -155 -219 -155 -74 0
-135 19 -173 56 -32 29 -35 37 -32 80 3 42 7 51 37 71 19 13 42 23 52 23 15 0
16 -5 8 -35 -13 -47 -4 -72 34 -96 85 -51 197 16 197 119 0 139 -221 218 -392
140 -111 -52 -168 -133 -168 -242 0 -195 215 -339 480 -323 251 16 432 198
418 421 -6 89 -38 154 -105 217 -65 61 -140 104 -359 210 -147 71 -196 100
-233 137 -137 137 -54 315 171 362 69 14 246 6 296 -15z"/>
<path d="M3424 1316 c-58 -49 -20 -146 57 -146 39 0 89 48 89 85 0 37 -50 85
-89 85 -17 0 -42 -10 -57 -24z"/>
<path d="M2075 1302 c-50 -24 -109 -88 -125 -137 -19 -58 -7 -140 31 -218 26
-52 31 -71 23 -84 -19 -31 -41 -38 -74 -26 l-30 11 0 -93 0 -93 31 -11 c73
-25 153 -6 215 51 83 77 96 181 36 296 -18 34 -32 70 -32 80 0 25 31 52 58 52
24 0 23 -2 23 108 1 35 -2 66 -5 70 -16 15 -113 12 -151 -6z"/>
<path d="M2320 980 l0 -320 90 0 90 0 0 150 c0 128 2 152 16 157 32 12 39 -15
42 -162 l4 -145 85 0 85 0 -4 188 c-3 202 -11 234 -63 268 -37 24 -97 29 -133
10 l-32 -17 0 96 0 95 -90 0 -90 0 0 -320z"/>
<path d="M2966 1125 c-98 -35 -157 -120 -157 -227 0 -141 84 -233 223 -245
l58 -6 0 91 0 91 -33 -6 c-28 -4 -37 -1 -55 22 -12 15 -22 38 -22 50 0 31 37
75 64 75 57 0 75 -49 76 -207 l0 -103 85 0 85 0 0 130 c0 169 -11 217 -61 274
-61 69 -170 94 -263 61z"/>
<path d="M3840 1131 c-74 -24 -127 -70 -157 -136 -15 -34 -18 -76 -21 -272
l-4 -233 91 0 91 0 0 209 c0 115 4 221 10 235 19 50 100 43 120 -10 23 -59
-26 -117 -81 -97 l-30 12 3 -92 3 -92 34 -3 c85 -8 188 55 230 141 27 55 28
146 2 202 -22 50 -68 96 -118 120 -42 21 -134 29 -173 16z"/>
<path d="M3390 895 l0 -235 90 0 90 0 0 235 0 235 -90 0 -90 0 0 -235z"/>
</g>
</svg>
