<?xml version="1.0" standalone="no"?>
<!DOCTYPE svg PUBLIC "-//W3C//DTD SVG 20010904//EN"
 "http://www.w3.org/TR/2001/REC-SVG-20010904/DTD/svg10.dtd">
<svg version="1.0" xmlns="http://www.w3.org/2000/svg"
 width="100.000000pt" height="30.000000pt" viewBox="0 0 100.000000 30.000000"
 preserveAspectRatio="xMidYMid meet">

<g transform="translate(0.000000,30.000000) scale(0.100000,-0.100000)"
fill="#000000" stroke="none">
<path d="M0 150 l0 -150 150 0 150 0 0 150 0 150 -150 0 -150 0 0 -150z m194
110 c34 -13 35 -47 2 -56 -29 -7 -46 1 -46 22 0 17 12 18 27 3 7 -7 13 -7 17
0 10 15 -30 32 -58 25 -60 -15 -54 -58 9 -70 52 -9 95 -40 95 -68 0 -38 -10
-56 -41 -71 -41 -22 -105 -19 -129 5 -24 24 -25 38 -3 62 33 36 114 10 83 -27
-17 -20 -32 -19 -28 3 2 12 -4 17 -22 17 -37 0 -41 -41 -5 -55 42 -16 72 -12
102 14 24 21 26 26 16 49 -9 19 -24 29 -55 37 -74 18 -102 45 -82 78 23 36 72
50 118 32z"/>
<path d="M366 214 c-27 -27 -21 -44 28 -78 24 -16 15 -46 -14 -46 -12 0 -20
-7 -20 -16 0 -13 6 -15 28 -10 57 14 68 63 22 96 -16 12 -30 26 -30 31 0 5 14
9 30 9 20 0 30 5 30 15 0 20 -54 20 -74 -1z"/>
<path d="M460 150 c0 -63 3 -80 14 -80 10 0 16 14 18 43 2 34 7 42 23 42 16 0
21 -8 23 -42 4 -53 32 -62 32 -10 0 65 -9 79 -46 75 -31 -4 -34 -2 -34 24 0
18 -5 28 -15 28 -12 0 -15 -16 -15 -80z"/>
<path d="M725 211 c-7 -12 12 -24 25 -16 11 7 4 25 -10 25 -5 0 -11 -4 -15 -9z"/>
<path d="M597 162 c-35 -39 -11 -96 39 -93 16 1 37 2 47 2 14 0 17 10 17 53
l0 53 -43 1 c-31 2 -49 -3 -60 -16z m72 -21 c13 -24 -8 -55 -35 -49 -20 3 -30
29 -20 54 8 20 43 17 55 -5z"/>
<path d="M730 125 c0 -30 5 -55 10 -55 6 0 10 25 10 55 0 30 -4 55 -10 55 -5
0 -10 -25 -10 -55z"/>
<path d="M780 103 c0 -42 4 -73 10 -73 6 0 10 9 10 21 0 17 4 20 23 15 36 -9
67 19 67 58 0 43 -16 55 -68 53 l-42 -1 0 -73z m80 42 c18 -22 3 -57 -23 -53
-22 3 -33 28 -23 54 7 18 30 18 46 -1z"/>
</g>
</svg>
