<?xml version="1.0" standalone="no"?>
<!DOCTYPE svg PUBLIC "-//W3C//DTD SVG 20010904//EN"
 "http://www.w3.org/TR/2001/REC-SVG-20010904/DTD/svg10.dtd">
<svg version="1.0" xmlns="http://www.w3.org/2000/svg"
 width="463.000000pt" height="196.000000pt" viewBox="0 0 463.000000 196.000000"
 preserveAspectRatio="xMidYMid meet">

<g transform="translate(0.000000,196.000000) scale(0.100000,-0.100000)"
fill="#000000" stroke="none">
<path d="M1440 980 l0 -980 1595 0 1595 0 0 980 0 980 -1595 0 -1595 0 0 -980z
m2171 351 c58 -58 18 -141 -67 -141 -34 0 -84 51 -84 85 0 38 50 85 90 85 22
0 41 -9 61 -29z m-1327 -1 c25 -9 26 -12 26 -95 l0 -85 -27 0 c-31 0 -63 -26
-63 -51 0 -10 14 -46 32 -79 57 -109 48 -215 -25 -290 -60 -62 -150 -85 -226
-59 l-31 11 0 94 c0 91 1 94 19 84 32 -17 60 -12 77 15 15 23 14 28 -18 97
-28 61 -33 84 -33 143 0 62 4 78 30 120 50 81 161 125 239 95z m286 -104 l0
-95 28 15 c67 35 150 4 182 -69 17 -36 20 -66 20 -220 l0 -178 -87 3 -88 3 -2
144 c-1 80 -7 149 -12 154 -5 5 -17 7 -25 4 -14 -5 -16 -29 -16 -157 l0 -150
-90 0 -90 0 0 320 0 320 90 0 90 0 0 -94z m641 -81 c62 -22 116 -79 134 -139
10 -33 15 -95 15 -188 l0 -138 -85 0 -85 0 -1 88 c0 162 -12 207 -54 218 -60
15 -106 -64 -67 -115 15 -20 28 -26 56 -25 l36 1 0 -90 0 -90 -58 6 c-157 14
-253 142 -222 294 30 145 187 229 331 178z m848 0 c101 -35 161 -120 161 -226
0 -81 -23 -131 -83 -186 -49 -45 -106 -66 -165 -61 l-37 3 -3 93 c-3 89 2 104
25 81 20 -20 63 -1 77 33 26 60 -18 119 -75 105 -43 -11 -49 -42 -49 -267 l0
-210 -91 0 -91 0 4 238 c3 220 5 240 25 277 59 111 186 161 302 120z m-419
-230 l0 -235 -90 0 -90 0 0 235 0 235 90 0 90 0 0 -235z"/>
<path d="M598 1665 c-166 -42 -247 -140 -216 -262 20 -83 74 -124 311 -240
284 -140 360 -194 415 -298 24 -44 27 -61 27 -145 0 -82 -4 -103 -27 -153 -50
-107 -166 -199 -293 -232 -115 -30 -287 -10 -395 45 -111 57 -180 159 -180
266 0 77 19 124 73 177 57 58 125 88 212 94 158 12 275 -62 275 -175 0 -115
-158 -178 -224 -89 -17 24 -19 32 -9 67 12 46 3 51 -47 25 -36 -19 -50 -43
-50 -87 0 -44 21 -73 73 -100 59 -32 184 -32 243 -1 92 49 131 135 105 232
-31 115 -144 176 -326 176 -122 -1 -185 -22 -262 -90 -75 -66 -108 -138 -107
-235 1 -104 30 -176 99 -245 224 -223 690 -179 872 83 58 83 73 137 73 261 -1
242 -97 368 -385 502 -274 127 -334 159 -356 190 -28 39 -28 91 -2 128 64 88
313 110 373 33 24 -30 25 -48 5 -86 -19 -36 -12 -46 30 -46 51 0 90 37 90 88
0 49 -23 77 -84 105 -59 26 -231 33 -313 12z"/>
</g>
</svg>
