<?xml version="1.0" standalone="no"?>
<!DOCTYPE svg PUBLIC "-//W3C//DTD SVG 20010904//EN"
 "http://www.w3.org/TR/2001/REC-SVG-20010904/DTD/svg10.dtd">
<svg version="1.0" xmlns="http://www.w3.org/2000/svg"
 width="102.000000pt" height="30.000000pt" viewBox="0 0 102.000000 30.000000"
 preserveAspectRatio="xMidYMid meet">

<g transform="translate(0.000000,30.000000) scale(0.100000,-0.100000)"
fill="#000000" stroke="none">
<path d="M0 150 l0 -150 140 0 140 0 0 150 0 150 -140 0 -140 0 0 -150z m211
120 c21 -12 25 -40 7 -58 -24 -24 -88 -9 -88 20 0 5 10 13 23 18 21 8 21 9 1
9 -29 1 -58 -23 -51 -41 3 -9 34 -24 69 -35 80 -24 101 -53 76 -106 -30 -62
-122 -86 -185 -47 -61 37 -31 104 43 98 44 -4 65 -28 48 -55 -15 -24 -50 -24
-46 0 2 11 -4 17 -18 17 -31 0 -26 -38 7 -51 36 -14 81 -2 99 26 24 37 10 62
-46 79 -78 23 -90 32 -90 71 0 27 6 37 28 49 32 18 95 20 123 6z"/>
</g>
</svg>
