<?xml version="1.0" standalone="no"?>
<!DOCTYPE svg PUBLIC "-//W3C//DTD SVG 20010904//EN"
 "http://www.w3.org/TR/2001/REC-SVG-20010904/DTD/svg10.dtd">
<svg version="1.0" xmlns="http://www.w3.org/2000/svg"
 width="368.000000pt" height="138.000000pt" viewBox="0 0 368.000000 138.000000"
 preserveAspectRatio="xMidYMid meet">

<g transform="translate(0.000000,138.000000) scale(0.100000,-0.100000)"
fill="#FFFFFF" stroke="none">
<path d="M0 690 l0 -690 495 0 495 0 0 690 0 690 -495 0 -495 0 0 -690z m614
509 c81 -23 112 -94 61 -144 -27 -28 -76 -33 -95 -10 -10 12 -10 18 0 29 39
49 -30 93 -127 81 -69 -8 -117 -41 -121 -82 -4 -43 42 -79 187 -142 64 -28
136 -67 161 -86 25 -19 63 -49 84 -65 56 -43 83 -85 102 -160 34 -135 2 -253
-95 -343 -163 -152 -448 -155 -600 -5 -49 48 -71 102 -71 177 0 142 99 239
256 249 161 10 274 -64 274 -180 0 -103 -106 -173 -225 -148 -117 24 -149 117
-60 176 37 24 57 12 50 -30 -6 -29 -3 -37 19 -51 21 -14 31 -15 57 -6 103 36
67 145 -55 171 -135 28 -256 -54 -256 -173 0 -120 112 -207 280 -215 69 -3 95
0 141 17 101 38 171 115 189 209 15 79 0 142 -46 195 -33 38 -69 60 -225 136
-238 116 -276 153 -266 254 9 96 109 156 262 157 44 0 97 -5 119 -11z"/>
<path d="M2766 1035 c-32 -29 -35 -82 -7 -116 15 -19 29 -24 66 -24 54 0 85
27 85 75 0 42 -9 59 -41 75 -41 21 -72 18 -103 -10z"/>
<path d="M1412 1014 c-121 -60 -155 -199 -83 -343 38 -74 38 -86 5 -108 -21
-13 -32 -15 -55 -6 l-29 11 0 -89 0 -90 35 -15 c68 -28 143 -11 210 48 84 74
97 180 37 296 -18 34 -32 70 -32 80 0 25 31 52 58 52 21 0 22 4 22 89 0 84 -1
89 -22 95 -46 12 -95 5 -146 -20z"/>
<path d="M1670 700 l0 -320 80 0 80 0 0 136 c0 136 8 174 36 174 25 0 34 -47
34 -181 l0 -129 86 0 86 0 -4 188 c-3 202 -11 234 -63 268 -36 24 -98 29 -133
11 -17 -8 -33 -12 -36 -9 -3 3 -6 45 -6 94 l0 88 -80 0 -80 0 0 -320z"/>
<path d="M2295 842 c-100 -47 -145 -117 -145 -225 0 -117 60 -201 166 -233 26
-8 62 -14 81 -14 l33 0 0 89 0 90 -33 -6 c-38 -6 -63 16 -73 63 -13 65 68 111
112 63 16 -18 19 -40 22 -155 l4 -134 84 0 84 0 0 154 c0 149 -1 155 -28 207
-40 76 -98 111 -195 116 -56 3 -81 0 -112 -15z"/>
<path d="M3145 836 c-59 -28 -97 -66 -122 -121 -14 -33 -18 -78 -21 -272 l-4
-233 91 0 90 0 3 226 c3 210 4 227 22 240 62 45 132 -18 102 -91 -16 -38 -56
-56 -81 -35 -13 11 -15 0 -15 -85 l0 -98 54 6 c132 13 226 116 226 247 0 174
-187 291 -345 216z"/>
<path d="M2740 615 l0 -235 85 0 85 0 0 235 0 235 -85 0 -85 0 0 -235z"/>
</g>
</svg>
